<?xml version="1.0" standalone="no"?><!DOCTYPE svg PUBLIC "-//W3C//DTD SVG 1.1//EN" "http://www.w3.org/Graphics/SVG/1.1/DTD/svg11.dtd"><svg t="1641132467680" class="icon" viewBox="0 0 1024 1024" version="1.1" xmlns="http://www.w3.org/2000/svg" p-id="2131" width="32" height="32" xmlns:xlink="http://www.w3.org/1999/xlink"><defs><style type="text/css"></style></defs><path d="M512 832c-176.725333 0-320-143.274667-320-320 0-176.725333 143.274667-320 320-320 176.725333 0 320 143.274667 320 320 0 176.725333-143.274667 320-320 320z m-170.666667-256a64 64 0 1 0 0-128 64 64 0 0 0 0 128z m170.666667 0a64 64 0 1 0 0-128 64 64 0 0 0 0 128z m170.666667 0a64 64 0 1 0 0-128 64 64 0 0 0 0 128z" fill="#333333" p-id="2132"></path></svg>